:version 1.10
:name ASF
:units
  mass 1
  length 1
  angle deg
:documentation
  ASF file generated by Kaydara
:root
  axis xyz
  order  tx ty tz rx ry rz
  position 0 0 0
  orientation 0 0 0
:bonedata
  begin
    id 1
    name RightUpLegDummy
    direction -1 2.30186e-007 8.31532e-007
    length 4.46685
    axis 0 0 0 xyz
  end
  begin
    id 2
    name RightUpLeg
    direction -2.30187e-007 -1 1.24343e-010
    length 16.4045
    axis -3.49089 -0.000906625 0.000286804 xyz
    dof rx ry rz
  end
  begin
    id 3
    name RightLeg
    direction -2.30181e-007 -1 -4.17157e-009
    length 17.5097
    axis 3.68512 0.0193738 -0.131023 xyz
    dof rx ry rz
  end
  begin
    id 4
    name RightFoot
    direction 8.31421e-007 -4.51202e-011 1
    length 6.49508
    axis 4.81691e-005 -0.120479 -0.188788 xyz
    dof rx ry rz
  end
  begin
    id 5
    name RightToes
    direction 0.00124746 -0.014064 0.9999
    length 3.85082
    axis 0.000481921 0.542163 -0.142578 xyz
    dof rx ry rz
  end
  begin
    id 6
    name SpineDummy
    direction 0.0717043 0.9409 -0.331007
    length 10.0032
    axis 0 0 0 xyz
  end
  begin
    id 7
    name Spine
    direction 2.30186e-007 1 4.58806e-011
    length 9.84055
    axis -0.001389 0.000121418 2.40972e-006 xyz
    dof rx ry rz
  end
  begin
    id 8
    name Spine1
    direction 0 0 0
    length 0
    axis -0.001389 0.000121451 1.30017e-006 xyz
    dof rx ry rz
  end
  begin
    id 9
    name HEadDummy
    direction -0.00347485 0.950688 -0.310128
    length 8.00997
    axis -0.001389 0.000121451 1.30017e-006 xyz
  end
  begin
    id 10
    name HEad
    direction -0.0222688 0.980941 0.193023
    length 5.12695
    axis -0.001389 0.000121451 1.30017e-006 xyz
    dof rx ry rz
  end
  begin
    id 11
    name LeftShoulder1Dummy
    direction 0.988871 0.146793 -0.0242004
    length 3.5792
    axis -0.001389 0.000121451 1.30017e-006 xyz
  end
  begin
    id 12
    name LeftShoulder1
    direction 0.993832 0.108932 0.020779
    length 4.16823
    axis -0.001389 0.000121451 1.30017e-006 xyz
    dof rx ry rz
  end
  begin
    id 13
    name LeftArm
    direction 1 3.44807e-006 -8.31404e-007
    length 9.91437
    axis -23.1894 0.134784 0.967509 xyz
    dof rx ry rz
  end
  begin
    id 14
    name LeftForeArm
    direction 1 3.44842e-006 -8.31581e-007
    length 9.08575
    axis -9.91835 -0.06569 -0.177793 xyz
    dof rx ry rz
  end
  begin
    id 15
    name LeftHand
    direction 0.992938 -0.0411636 0.11126
    length 5.32135
    axis -0.00960232 -0.00340091 0.185173 xyz
    dof rx ry rz
  end
  begin
    id 16
    name RightShoulderDummy
    direction -0.988871 0.146793 -0.0241962
    length 3.5792
    axis -0.001389 0.000121451 1.30017e-006 xyz
  end
  begin
    id 17
    name RightShoulder
    direction -0.993832 0.108933 0.0207785
    length 4.16823
    axis 0.215806 0.000203643 -0.0068026 xyz
    dof rx ry rz
  end
  begin
    id 18
    name RightArm
    direction -1 3.90912e-006 8.31284e-007
    length 9.91437
    axis -23.2009 -0.134239 -0.964101 xyz
    dof rx ry rz
  end
  begin
    id 19
    name RightForeArm
    direction -1 3.90882e-006 8.31502e-007
    length 9.08575
    axis -9.92322 0.0658061 0.178867 xyz
    dof rx ry rz
  end
  begin
    id 20
    name RightHand
    direction -0.992843 -0.0414603 0.112003
    length 5.28593
    axis -0.00960638 0.00330671 -0.185228 xyz
    dof rx ry rz
  end
  begin
    id 21
    name LeftUpLegDummy
    direction 1 -2.30186e-007 -8.31532e-007
    length 4.46685
    axis 0 0 0 xyz
  end
  begin
    id 22
    name LeftUpLeg
    direction -2.30187e-007 -1 6.00931e-010
    length 16.4045
    axis -3.48766 0.00143442 -0.000524262 xyz
    dof rx ry rz
  end
  begin
    id 23
    name LeftLeg
    direction -2.30187e-007 -1 1.6669e-009
    length 17.5097
    axis 3.68178 -0.00654042 -0.000285133 xyz
    dof rx ry rz
  end
  begin
    id 24
    name LeftFoot
    direction 8.31532e-007 -4.54478e-011 1
    length 6.49508
    axis 1.87233e-006 4.66016e-005 -8.6538e-006 xyz
    dof rx ry rz
  end
  begin
    id 25
    name LeftToes
    direction 0.00818058 -0.00485161 0.999955
    length 3.85048
    axis 1.06247e-005 4.65869e-005 -8.65513e-006 xyz
    dof rx ry rz
  end
:hierarchy
  begin
    root RightUpLegDummy SpineDummy LeftUpLegDummy
    RightUpLegDummy RightUpLeg
    RightUpLeg RightLeg
    RightLeg RightFoot
    RightFoot RightToes
    SpineDummy Spine
    Spine Spine1
    Spine1 HEadDummy LeftShoulder1Dummy RightShoulderDummy
    HEadDummy HEad
    LeftShoulder1Dummy LeftShoulder1
    LeftShoulder1 LeftArm
    LeftArm LeftForeArm
    LeftForeArm LeftHand
    RightShoulderDummy RightShoulder
    RightShoulder RightArm
    RightArm RightForeArm
    RightForeArm RightHand
    LeftUpLegDummy LeftUpLeg
    LeftUpLeg LeftLeg
    LeftLeg LeftFoot
    LeftFoot LeftToes
  end

:SAMPLES-PER-SECOND 30
:FULLY-SPECIFIED
:DEGREES
143
root  -82.7494 26.6464 -6.26426 -120.086 81.5559 -144.874
RightUpLeg  -52.1528 -14.997 -19.6276
RightLeg  55.6869 2.92073 3.66586
RightFoot  -6.30685 0.0667062 1.58847
RightToes  -52.5993 -0.326116 -0.374701
Spine  20.3216 1.8205 0.0315385
Spine1  31.551 2.51594 2.10051
HEad  -10.2621 -14.7736 26.5678
LeftShoulder1  0 -2.42657e-020 -4.95415e-022
LeftArm  -7.84369 -44.0739 -101.546
LeftForeArm  51.6069 -32.7874 -6.48767
LeftHand  -0.972997 -8.623 12.4919
RightShoulder  0 2.42657e-020 1.07489e-018
RightArm  -60.6059 44.9493 90.7119
RightForeArm  35.9309 11.85 2.11271
RightHand  -0.553804 20.6476 -2.67032
LeftUpLeg  -57.4089 5.93468 28.3437
LeftLeg  69.2497 -1.86258 -4.1075
LeftFoot  -16.1467 -0.253789 -1.78904
LeftToes  -49.8106 1.71452e-006 7.46813e-008
144
root  -82.9356 25.7419 -5.03157 -106.446 83.199 -132.409
RightUpLeg  -59.2599 -10.7566 -21.5476
RightLeg  62.0436 4.76347 7.58004
RightFoot  -9.33223 0.038487 0.849151
RightToes  -54.7964 -0.346107 -0.382603
Spine  21.4404 1.36378 0.78905
Spine1  32.4988 0.63308 4.16769
HEad  -10.1891 -12.8739 22.6006
LeftShoulder1  0 -2.42657e-020 -4.95415e-022
LeftArm  -7.72553 -48.767 -107.954
LeftForeArm  57.2012 -21.8248 -4.00295
LeftHand  -0.73069 -7.56286 10.661
RightShoulder  0 2.42657e-020 1.07489e-018
RightArm  -64.4659 49.7764 89.1654
RightForeArm  36.4977 10.4719 1.86055
RightHand  -0.495644 20.3668 -2.38947
LeftUpLeg  -57.872 7.80887 31.043
LeftLeg  70.8261 -1.40349 -3.34211
LeftFoot  -16.8163 -0.41285 -2.79254
LeftToes  -51.374 1.71452e-006 7.46813e-008
145
root  -83.1166 24.9613 -3.81231 -102.847 84.9531 -130.124
RightUpLeg  -65.0627 -10.6336 -22.6234
RightLeg  68.609 5.57796 11.5943
RightFoot  -12.5126 -0.0643418 -0.209361
RightToes  -59.1551 -0.386587 -0.395982
Spine  22.4691 0.840988 1.52201
Spine1  33.4396 -0.834007 5.54271
HEad  -10.613 -11.7 19.5873
LeftShoulder1  0 -2.42657e-020 -4.95415e-022
LeftArm  -7.52425 -54.0064 -113.583
LeftForeArm  59.1533 -12.1658 -2.13376
LeftHand  -0.256687 -7.82521 3.38476
RightShoulder  0 2.42657e-020 1.07489e-018
RightArm  -70.5709 53.7941 85.1649
RightForeArm  37.4005 7.85675 1.38845
RightHand  -0.531459 19.5746 -2.71104
LeftUpLeg  -58.2671 7.78363 32.9418
LeftLeg  70.9413 -0.918567 -2.20697
LeftFoot  -16.3875 -0.546205 -3.79198
LeftToes  -53.2801 1.71452e-006 7.46813e-008
146
root  -83.373 24.585 -2.62997 -86.7334 86.5403 -116.353
RightUpLeg  -71.3684 -12.7942 -19.8128
RightLeg  72.6041 5.56384 13.9355
RightFoot  -14.9624 -0.222859 -1.31947
RightToes  -58.0772 -0.376484 -0.392961
Spine  22.7484 0.922515 2.56611
Spine1  33.3098 -1.08312 7.0511
HEad  -11.5719 -10.6659 15.4415
LeftShoulder1  0 -2.42657e-020 -4.95415e-022
LeftArm  -5.31113 -56.8756 -117.569
LeftForeArm  60.2696 -6.40502 -1.09275
LeftHand  0.267471 -8.52461 -3.96082
RightShoulder  0 2.42657e-020 1.07489e-018
RightArm  -75.5647 55.7998 77.7768
RightForeArm  35.6291 5.41374 0.955775
RightHand  -0.536473 18.2041 -2.97865
LeftUpLeg  -58.5408 8.1167 34.7212
LeftLeg  69.5364 -0.224492 -0.516301
LeftFoot  -14.3795 -0.593478 -4.70205
LeftToes  -54.6606 1.71452e-006 7.46813e-008
147
root  -83.5904 24.6617 -1.44859 -52.3876 86.7114 -84.2517
RightUpLeg  -76.6685 -11.809 -17.3118
RightLeg  74.7686 5.39729 15.1358
RightFoot  -14.6708 -0.275178 -1.75991
RightToes  -57.9203 -0.375018 -0.391691
Spine  22.9293 1.34419 3.86547
Spine1  33.3316 -0.50658 8.63631
HEad  -13.3774 -9.48728 12.3607
LeftShoulder1  0 -2.42657e-020 -4.95415e-022
LeftArm  1.96629 -57.7362 -120.747
LeftForeArm  62.6966 -3.20972 -0.523629
LeftHand  0.452702 -7.93427 -6.89667
RightShoulder  0 2.42657e-020 1.07489e-018
RightArm  -78.688 56.8058 69.6408
RightForeArm  31.7216 3.93442 0.697851
RightHand  -0.526888 18.1058 -2.93701
LeftUpLeg  -57.8387 8.64603 36.5652
LeftLeg  67.1187 1.1556 2.29605
LeftFoot  -10.8341 -0.528521 -5.56914
LeftToes  -53.9372 1.71452e-006 7.46813e-008
148
root  -83.6105 25.0697 -0.518115 -33.4097 87.0344 -66.532
RightUpLeg  -78.7415 -12.4094 -14.8406
RightLeg  74.9066 5.99501 16.8674
RightFoot  -14.3206 -0.357055 -2.46421
RightToes  -57.616 -0.372179 -0.391057
Spine  23.3417 0.997344 5.12321
Spine1  33.8875 -1.27555 10.2012
HEad  -14.4082 -7.98865 9.47495
LeftShoulder1  0 -2.42657e-020 -4.95415e-022
LeftArm  4.12739 -56.9898 -121.58
LeftForeArm  62.266 -3.07094 -0.500239
LeftHand  0.130839 -6.17359 -2.79897
RightShoulder  0 2.42657e-020 1.07489e-018
RightArm  -81.6092 56.7482 65.2366
RightForeArm  29.1293 6.41088 1.13714
RightHand  -0.370751 19.6024 -1.77647
LeftUpLeg  -57.3282 7.17943 36.7055
LeftLeg  65.2972 4.09944 7.52364
LeftFoot  -6.54964 -0.356902 -6.23138
LeftToes  -47.6949 1.71452e-006 7.46813e-008
149
root  -83.5185 25.7488 0.0991833 -7.01013 87.6939 -41.0367
RightUpLeg  -78.9487 -13.2173 -13.5496
RightLeg  73.3986 6.90772 17.8432
RightFoot  -13.4438 -0.379328 -2.8402
RightToes  -56.9582 -0.366057 -0.389624
Spine  23.2797 0.143822 6.1864
Spine1  34.0189 -2.80791 11.1848
HEad  -14.1206 -6.03555 4.89016
LeftShoulder1  0 -2.42657e-020 -4.95415e-022
LeftArm  -0.0147041 -55.5818 -120.064
LeftForeArm  57.7954 -4.31379 -0.728372
LeftHand  0.032568 -6.29192 -0.963564
RightShoulder  0 2.42657e-020 1.07489e-018
RightArm  -79.22 56.2116 63.8594
RightForeArm  29.3885 10.8518 1.93498
RightHand  -0.61001 20.6866 -2.97229
LeftUpLeg  -57.661 5.19657 34.8436
LeftLeg  64.882 7.06821 12.6043
LeftFoot  -3.20944 -0.168253 -6.00033
LeftToes  -34.8477 1.71452e-006 7.46813e-008
150
root  -83.2926 26.5584 0.568497 16.5408 86.2516 -17.6063
RightUpLeg  -77.5903 -11.1847 -13.4513
RightLeg  70.4017 7.70973 17.171
RightFoot  -12.1818 -0.341555 -2.82262
RightToes  -55.8485 -0.355783 -0.386114
Spine  22.8692 -0.502063 6.67133
Spine1  33.5843 -4.35525 12.0707
HEad  -12.6242 -3.70271 0.165238
LeftShoulder1  0 -2.42657e-020 -4.95415e-022
LeftArm  -5.09038 -53.3811 -116.125
LeftForeArm  53.4995 -6.01849 -1.03784
LeftHand  0.0812918 -6.7642 -1.74723
RightShoulder  0 2.42657e-020 1.07489e-018
RightArm  -76.1485 53.1291 63.7737
RightForeArm  26.6899 17.2118 3.12682
RightHand  -0.318339 22.6602 -1.21901
LeftUpLeg  -56.4318 5.04378 31.7979
LeftLeg  65.5603 6.99665 12.8272
LeftFoot  -2.56265 -0.125639 -5.61267
LeftToes  -28.9121 1.71452e-006 7.46813e-008
151
root  -82.9233 27.3546 0.922691 20.5338 84.579 -12.9107
RightUpLeg  -74.8091 -8.07728 -13.9595
RightLeg  66.9322 8.04017 15.3916
RightFoot  -10.9867 -0.277014 -2.50242
RightToes  -54.7794 -0.345951 -0.382545
Spine  22.5263 -1.37277 6.82037
Spine1  33.4669 -6.29617 12.3987
HEad  -11.817 -0.590133 -4.62496
LeftShoulder1  0 -2.42657e-020 -4.95415e-022
LeftArm  -10.4972 -51.7206 -111.362
LeftForeArm  53.1791 -6.42258 -1.11009
LeftHand  -0.0133475 -6.2533 -0.125746
RightShoulder  0 2.42657e-020 1.07489e-018
RightArm  -64.24 49.2001 65.3022
RightForeArm  23.1937 25.3219 4.78145
RightHand  -0.243357 22.2606 -0.867127
LeftUpLeg  -54.5761 6.35076 28.0455
LeftLeg  67.534 5.72758 11.477
LeftFoot  -0.607825 -0.0255651 -4.81681
LeftToes  -30.8263 1.71452e-006 7.46813e-008
152
root  -82.4851 28.0758 1.0999 24.9182 83.92 -7.50598
RightUpLeg  -71.1305 -6.12887 -14.9017
RightLeg  63.3172 8.34315 13.8167
RightFoot  -10.3067 -0.235402 -2.23233
RightToes  -53.9482 -0.338354 -0.379643
Spine  22.0241 -2.90349 6.85377
Spine1  33.3879 -9.07787 11.6227
HEad  -10.7576 3.90986 -9.91047
LeftShoulder1  0 -2.42657e-020 -4.95415e-022
LeftArm  -16.7966 -49.5696 -105.428
LeftForeArm  51.6754 -6.89758 -1.19719
LeftHand  -0.0970215 -4.32052 2.2052
RightShoulder  0 2.42657e-020 1.07489e-018
RightArm  -53.7717 46.4025 68.2853
RightForeArm  25.2897 32.6461 6.48475
RightHand  -0.846526 22.7433 -3.83827
LeftUpLeg  -53.6683 7.19546 24.0867
LeftLeg  70.6343 4.36855 10.1345
LeftFoot  1.79678 0.0618817 -3.9447
LeftToes  -26.7293 1.71452e-006 7.46813e-008
153
root  -82.0685 28.7622 1.1827 25.6766 82.6862 -6.16566
RightUpLeg  -68.0611 -5.47554 -14.5947
RightLeg  59.4604 9.76076 13.9257
RightFoot  -9.21015 -0.207504 -2.19836
RightToes  -53.7114 -0.336197 -0.378796
Spine  21.4211 -4.12572 6.18827
Spine1  33.0828 -11.4442 10.4719
HEad  -10.1805 8.38828 -13.7763
LeftShoulder1  0 -2.42657e-020 -4.95415e-022
LeftArm  -21.3941 -47.4791 -99.7079
LeftForeArm  48.1463 -6.98944 -1.21942
LeftHand  -0.090599 -3.15618 2.92414
RightShoulder  0 2.42657e-020 1.07489e-018
RightArm  -43.052 43.5543 73.3183
RightForeArm  32.7022 41.2822 8.91147
RightHand  -1.9652 22.9252 -9.30209
LeftUpLeg  -53.0959 9.00826 20.5045
LeftLeg  72.6595 2.24547 5.80328
LeftFoot  2.04491 0.063158 -3.53773
LeftToes  -27.1663 1.71452e-006 7.46813e-008
